# xmcd CD database file
#
# Track frame offsets:
#	150
#	19491
#	37842
#	57318
#	78763
#	101638
#	121035
#	140272
#
# Disc length: 2159 seconds
#
# Revision: 0
# Processed by: cddbd v1.5.2PL0 Copyright (c) Steve Scherf et al.
# Submitted via: CDex 1.70beta2
#
DISCID=5b086d08
DTITLE=Jazz in the city - Volume 2
DYEAR=2005
DGENRE=Jazz
TTITLE0=Tom Gaebel - The summertime
TTITLE1=Rigmor Gustafsson and Nils Landgren - Fire and rain
TTITLE2=Dsound - Gaining back my faith 
TTITLE3=Jeff Cascaro - Love will find a way
TTITLE4=Joo Kraus - No one can tell
TTITLE5=Chris Walden big band - Smile
TTITLE6=Nils Wülker - Ask me
TTITLE7=Jamie Cullum - High and dry 
EXTD=YEAR: 2005
EXTT0=
EXTT1=
EXTT2=
EXTT3=
EXTT4=
EXTT5=
EXTT6=
EXTT7=
PLAYORDER=
